<mxfile host="Electron" modified="2023-08-18T17:10:41.222Z" agent="Mozilla/5.0 (Windows NT 10.0; Win64; x64) AppleWebKit/537.36 (KHTML, like Gecko) draw.io/21.6.5 Chrome/114.0.5735.243 Electron/25.3.1 Safari/537.36" etag="vgPDswXWc070ehLVIay1" version="21.6.5" type="device">
  <diagram name="Page-1" id="ZhK_0K_zLd8zDx3mUXoL">
    <mxGraphModel dx="2590" dy="2684" grid="1" gridSize="10" guides="1" tooltips="1" connect="1" arrows="1" fold="1" page="1" pageScale="1" pageWidth="827" pageHeight="1169" math="0" shadow="0">
      <root>
        <mxCell id="0" />
        <mxCell id="1" parent="0" />
        <mxCell id="BhPjJDwIWVeHdWP09FlF-5" value="" style="rounded=0;whiteSpace=wrap;html=1;" vertex="1" parent="1">
          <mxGeometry x="250" y="-80" width="290" height="1360" as="geometry" />
        </mxCell>
        <mxCell id="BhPjJDwIWVeHdWP09FlF-8" value="" style="ellipse;whiteSpace=wrap;html=1;" vertex="1" parent="1">
          <mxGeometry x="265" y="110" width="260" height="80" as="geometry" />
        </mxCell>
        <mxCell id="BhPjJDwIWVeHdWP09FlF-9" value="" style="ellipse;whiteSpace=wrap;html=1;" vertex="1" parent="1">
          <mxGeometry x="265" y="20" width="260" height="80" as="geometry" />
        </mxCell>
        <mxCell id="BhPjJDwIWVeHdWP09FlF-10" value="" style="ellipse;whiteSpace=wrap;html=1;" vertex="1" parent="1">
          <mxGeometry x="260" y="740" width="260" height="80" as="geometry" />
        </mxCell>
        <mxCell id="BhPjJDwIWVeHdWP09FlF-11" value="" style="ellipse;whiteSpace=wrap;html=1;" vertex="1" parent="1">
          <mxGeometry x="265" y="830" width="260" height="80" as="geometry" />
        </mxCell>
        <mxCell id="BhPjJDwIWVeHdWP09FlF-12" value="" style="ellipse;whiteSpace=wrap;html=1;" vertex="1" parent="1">
          <mxGeometry x="265" y="650" width="260" height="80" as="geometry" />
        </mxCell>
        <mxCell id="BhPjJDwIWVeHdWP09FlF-13" value="" style="ellipse;whiteSpace=wrap;html=1;" vertex="1" parent="1">
          <mxGeometry x="265" y="560" width="260" height="80" as="geometry" />
        </mxCell>
        <mxCell id="BhPjJDwIWVeHdWP09FlF-14" value="" style="ellipse;whiteSpace=wrap;html=1;" vertex="1" parent="1">
          <mxGeometry x="265" y="-70" width="260" height="80" as="geometry" />
        </mxCell>
        <mxCell id="BhPjJDwIWVeHdWP09FlF-15" value="" style="ellipse;whiteSpace=wrap;html=1;" vertex="1" parent="1">
          <mxGeometry x="265" y="200" width="260" height="80" as="geometry" />
        </mxCell>
        <mxCell id="BhPjJDwIWVeHdWP09FlF-16" value="" style="ellipse;whiteSpace=wrap;html=1;" vertex="1" parent="1">
          <mxGeometry x="265" y="290" width="260" height="80" as="geometry" />
        </mxCell>
        <mxCell id="BhPjJDwIWVeHdWP09FlF-17" value="" style="ellipse;whiteSpace=wrap;html=1;" vertex="1" parent="1">
          <mxGeometry x="265" y="380" width="260" height="80" as="geometry" />
        </mxCell>
        <mxCell id="BhPjJDwIWVeHdWP09FlF-18" value="" style="ellipse;whiteSpace=wrap;html=1;" vertex="1" parent="1">
          <mxGeometry x="265" y="470" width="260" height="80" as="geometry" />
        </mxCell>
        <mxCell id="BhPjJDwIWVeHdWP09FlF-19" value="Login" style="text;html=1;strokeColor=none;fillColor=none;align=center;verticalAlign=middle;whiteSpace=wrap;rounded=0;" vertex="1" parent="1">
          <mxGeometry x="365" y="-50" width="60" height="30" as="geometry" />
        </mxCell>
        <mxCell id="BhPjJDwIWVeHdWP09FlF-20" value="Search ID / Name" style="text;html=1;strokeColor=none;fillColor=none;align=center;verticalAlign=middle;whiteSpace=wrap;rounded=0;" vertex="1" parent="1">
          <mxGeometry x="332.5" y="45" width="125" height="30" as="geometry" />
        </mxCell>
        <mxCell id="BhPjJDwIWVeHdWP09FlF-21" value="Buy Month Card" style="text;html=1;strokeColor=none;fillColor=none;align=center;verticalAlign=middle;whiteSpace=wrap;rounded=0;" vertex="1" parent="1">
          <mxGeometry x="332.5" y="135" width="125" height="30" as="geometry" />
        </mxCell>
        <mxCell id="BhPjJDwIWVeHdWP09FlF-22" value="Register New Student" style="text;html=1;strokeColor=none;fillColor=none;align=center;verticalAlign=middle;whiteSpace=wrap;rounded=0;" vertex="1" parent="1">
          <mxGeometry x="320" y="225" width="150" height="30" as="geometry" />
        </mxCell>
        <mxCell id="BhPjJDwIWVeHdWP09FlF-23" value="Mark Attendence" style="text;html=1;strokeColor=none;fillColor=none;align=center;verticalAlign=middle;whiteSpace=wrap;rounded=0;" vertex="1" parent="1">
          <mxGeometry x="342.5" y="315" width="105" height="30" as="geometry" />
        </mxCell>
        <mxCell id="BhPjJDwIWVeHdWP09FlF-24" value="Check whether the student is blocked or not" style="text;html=1;strokeColor=none;fillColor=none;align=center;verticalAlign=middle;whiteSpace=wrap;rounded=0;" vertex="1" parent="1">
          <mxGeometry x="270" y="405" width="250" height="30" as="geometry" />
        </mxCell>
        <mxCell id="BhPjJDwIWVeHdWP09FlF-25" value="Block Student" style="text;html=1;strokeColor=none;fillColor=none;align=center;verticalAlign=middle;whiteSpace=wrap;rounded=0;" vertex="1" parent="1">
          <mxGeometry x="347.5" y="495" width="95" height="30" as="geometry" />
        </mxCell>
        <mxCell id="BhPjJDwIWVeHdWP09FlF-26" value="Unblock Student" style="text;html=1;strokeColor=none;fillColor=none;align=center;verticalAlign=middle;whiteSpace=wrap;rounded=0;" vertex="1" parent="1">
          <mxGeometry x="345" y="585" width="100" height="30" as="geometry" />
        </mxCell>
        <mxCell id="BhPjJDwIWVeHdWP09FlF-27" value="Check student details" style="text;html=1;strokeColor=none;fillColor=none;align=center;verticalAlign=middle;whiteSpace=wrap;rounded=0;" vertex="1" parent="1">
          <mxGeometry x="325" y="675" width="140" height="30" as="geometry" />
        </mxCell>
        <mxCell id="BhPjJDwIWVeHdWP09FlF-28" value="add teacher" style="text;html=1;strokeColor=none;fillColor=none;align=center;verticalAlign=middle;whiteSpace=wrap;rounded=0;" vertex="1" parent="1">
          <mxGeometry x="325" y="765" width="130" height="30" as="geometry" />
        </mxCell>
        <mxCell id="BhPjJDwIWVeHdWP09FlF-29" value="check teacher details" style="text;html=1;strokeColor=none;fillColor=none;align=center;verticalAlign=middle;whiteSpace=wrap;rounded=0;" vertex="1" parent="1">
          <mxGeometry x="332.5" y="855" width="125" height="30" as="geometry" />
        </mxCell>
        <mxCell id="BhPjJDwIWVeHdWP09FlF-30" value="Text" style="text;html=1;strokeColor=none;fillColor=none;align=center;verticalAlign=middle;whiteSpace=wrap;rounded=0;" vertex="1" parent="1">
          <mxGeometry x="360" y="945" width="60" height="30" as="geometry" />
        </mxCell>
        <mxCell id="BhPjJDwIWVeHdWP09FlF-31" value="" style="ellipse;whiteSpace=wrap;html=1;" vertex="1" parent="1">
          <mxGeometry x="265" y="1010" width="260" height="80" as="geometry" />
        </mxCell>
        <mxCell id="BhPjJDwIWVeHdWP09FlF-32" value="" style="ellipse;whiteSpace=wrap;html=1;" vertex="1" parent="1">
          <mxGeometry x="260" y="920" width="260" height="80" as="geometry" />
        </mxCell>
        <mxCell id="BhPjJDwIWVeHdWP09FlF-33" value="check number of students" style="text;html=1;strokeColor=none;fillColor=none;align=center;verticalAlign=middle;whiteSpace=wrap;rounded=0;" vertex="1" parent="1">
          <mxGeometry x="320" y="945" width="150" height="30" as="geometry" />
        </mxCell>
        <mxCell id="BhPjJDwIWVeHdWP09FlF-34" value="monthly income" style="text;html=1;strokeColor=none;fillColor=none;align=center;verticalAlign=middle;whiteSpace=wrap;rounded=0;" vertex="1" parent="1">
          <mxGeometry x="345" y="1035" width="105" height="30" as="geometry" />
        </mxCell>
        <mxCell id="BhPjJDwIWVeHdWP09FlF-35" value="" style="ellipse;whiteSpace=wrap;html=1;" vertex="1" parent="1">
          <mxGeometry x="265" y="1100" width="260" height="80" as="geometry" />
        </mxCell>
        <mxCell id="BhPjJDwIWVeHdWP09FlF-36" value="" style="ellipse;whiteSpace=wrap;html=1;" vertex="1" parent="1">
          <mxGeometry x="265" y="1190" width="260" height="80" as="geometry" />
        </mxCell>
        <mxCell id="BhPjJDwIWVeHdWP09FlF-37" value="new students in month" style="text;html=1;strokeColor=none;fillColor=none;align=center;verticalAlign=middle;whiteSpace=wrap;rounded=0;" vertex="1" parent="1">
          <mxGeometry x="330" y="1125" width="130" height="30" as="geometry" />
        </mxCell>
        <mxCell id="BhPjJDwIWVeHdWP09FlF-38" value="delete teaches" style="text;html=1;strokeColor=none;fillColor=none;align=center;verticalAlign=middle;whiteSpace=wrap;rounded=0;" vertex="1" parent="1">
          <mxGeometry x="340" y="1215" width="110" height="30" as="geometry" />
        </mxCell>
        <mxCell id="BhPjJDwIWVeHdWP09FlF-39" value="Admin" style="shape=umlActor;verticalLabelPosition=bottom;verticalAlign=top;html=1;outlineConnect=0;" vertex="1" parent="1">
          <mxGeometry x="760" y="490" width="60" height="140" as="geometry" />
        </mxCell>
        <mxCell id="BhPjJDwIWVeHdWP09FlF-49" value="Cashier" style="shape=umlActor;verticalLabelPosition=bottom;verticalAlign=top;html=1;outlineConnect=0;" vertex="1" parent="1">
          <mxGeometry x="10" y="495" width="60" height="140" as="geometry" />
        </mxCell>
        <mxCell id="BhPjJDwIWVeHdWP09FlF-51" value="" style="endArrow=none;html=1;rounded=0;exitX=0;exitY=0.5;exitDx=0;exitDy=0;" edge="1" parent="1" source="BhPjJDwIWVeHdWP09FlF-14">
          <mxGeometry width="50" height="50" relative="1" as="geometry">
            <mxPoint x="240" y="-40" as="sourcePoint" />
            <mxPoint x="80" y="560" as="targetPoint" />
          </mxGeometry>
        </mxCell>
        <mxCell id="BhPjJDwIWVeHdWP09FlF-52" value="" style="endArrow=none;html=1;rounded=0;exitX=0;exitY=0.5;exitDx=0;exitDy=0;" edge="1" parent="1" source="BhPjJDwIWVeHdWP09FlF-9">
          <mxGeometry width="50" height="50" relative="1" as="geometry">
            <mxPoint x="275" y="-20" as="sourcePoint" />
            <mxPoint x="80" y="560" as="targetPoint" />
          </mxGeometry>
        </mxCell>
        <mxCell id="BhPjJDwIWVeHdWP09FlF-53" value="" style="endArrow=none;html=1;rounded=0;exitX=0;exitY=0.5;exitDx=0;exitDy=0;" edge="1" parent="1" source="BhPjJDwIWVeHdWP09FlF-8">
          <mxGeometry width="50" height="50" relative="1" as="geometry">
            <mxPoint x="275" y="70" as="sourcePoint" />
            <mxPoint x="80" y="560" as="targetPoint" />
          </mxGeometry>
        </mxCell>
        <mxCell id="BhPjJDwIWVeHdWP09FlF-54" value="" style="endArrow=none;html=1;rounded=0;exitX=0;exitY=0.5;exitDx=0;exitDy=0;" edge="1" parent="1" source="BhPjJDwIWVeHdWP09FlF-15">
          <mxGeometry width="50" height="50" relative="1" as="geometry">
            <mxPoint x="275" y="160" as="sourcePoint" />
            <mxPoint x="80" y="560" as="targetPoint" />
          </mxGeometry>
        </mxCell>
        <mxCell id="BhPjJDwIWVeHdWP09FlF-55" value="" style="endArrow=none;html=1;rounded=0;exitX=0;exitY=0.5;exitDx=0;exitDy=0;" edge="1" parent="1" source="BhPjJDwIWVeHdWP09FlF-16">
          <mxGeometry width="50" height="50" relative="1" as="geometry">
            <mxPoint x="275" y="250" as="sourcePoint" />
            <mxPoint x="80" y="560" as="targetPoint" />
          </mxGeometry>
        </mxCell>
        <mxCell id="BhPjJDwIWVeHdWP09FlF-56" value="" style="endArrow=none;html=1;rounded=0;exitX=0;exitY=0.5;exitDx=0;exitDy=0;" edge="1" parent="1" source="BhPjJDwIWVeHdWP09FlF-24">
          <mxGeometry width="50" height="50" relative="1" as="geometry">
            <mxPoint x="275" y="340" as="sourcePoint" />
            <mxPoint x="80" y="560" as="targetPoint" />
          </mxGeometry>
        </mxCell>
        <mxCell id="BhPjJDwIWVeHdWP09FlF-57" value="" style="endArrow=none;html=1;rounded=0;exitX=1;exitY=0.5;exitDx=0;exitDy=0;" edge="1" parent="1" source="BhPjJDwIWVeHdWP09FlF-14">
          <mxGeometry width="50" height="50" relative="1" as="geometry">
            <mxPoint x="540" y="390" as="sourcePoint" />
            <mxPoint x="760" y="560" as="targetPoint" />
          </mxGeometry>
        </mxCell>
        <mxCell id="BhPjJDwIWVeHdWP09FlF-58" value="" style="endArrow=none;html=1;rounded=0;exitX=1;exitY=0.5;exitDx=0;exitDy=0;" edge="1" parent="1">
          <mxGeometry width="50" height="50" relative="1" as="geometry">
            <mxPoint x="525" y="60" as="sourcePoint" />
            <mxPoint x="760" y="560" as="targetPoint" />
          </mxGeometry>
        </mxCell>
        <mxCell id="BhPjJDwIWVeHdWP09FlF-60" value="" style="endArrow=none;html=1;rounded=0;exitX=1;exitY=0.5;exitDx=0;exitDy=0;" edge="1" parent="1" source="BhPjJDwIWVeHdWP09FlF-18">
          <mxGeometry width="50" height="50" relative="1" as="geometry">
            <mxPoint x="525" y="240" as="sourcePoint" />
            <mxPoint x="760" y="560" as="targetPoint" />
          </mxGeometry>
        </mxCell>
        <mxCell id="BhPjJDwIWVeHdWP09FlF-61" value="" style="endArrow=none;html=1;rounded=0;exitX=1;exitY=0.75;exitDx=0;exitDy=0;" edge="1" parent="1" source="BhPjJDwIWVeHdWP09FlF-24">
          <mxGeometry width="50" height="50" relative="1" as="geometry">
            <mxPoint x="535" y="250" as="sourcePoint" />
            <mxPoint x="760" y="560" as="targetPoint" />
          </mxGeometry>
        </mxCell>
        <mxCell id="BhPjJDwIWVeHdWP09FlF-62" value="" style="endArrow=none;html=1;rounded=0;exitX=1;exitY=0.5;exitDx=0;exitDy=0;" edge="1" parent="1" source="BhPjJDwIWVeHdWP09FlF-13">
          <mxGeometry width="50" height="50" relative="1" as="geometry">
            <mxPoint x="535" y="520" as="sourcePoint" />
            <mxPoint x="760" y="560" as="targetPoint" />
          </mxGeometry>
        </mxCell>
        <mxCell id="BhPjJDwIWVeHdWP09FlF-63" value="" style="endArrow=none;html=1;rounded=0;exitX=1;exitY=0.5;exitDx=0;exitDy=0;" edge="1" parent="1" source="BhPjJDwIWVeHdWP09FlF-12">
          <mxGeometry width="50" height="50" relative="1" as="geometry">
            <mxPoint x="535" y="610" as="sourcePoint" />
            <mxPoint x="760" y="560" as="targetPoint" />
          </mxGeometry>
        </mxCell>
        <mxCell id="BhPjJDwIWVeHdWP09FlF-64" value="" style="endArrow=none;html=1;rounded=0;exitX=1;exitY=0.5;exitDx=0;exitDy=0;" edge="1" parent="1" source="BhPjJDwIWVeHdWP09FlF-10">
          <mxGeometry width="50" height="50" relative="1" as="geometry">
            <mxPoint x="535" y="700" as="sourcePoint" />
            <mxPoint x="760" y="560" as="targetPoint" />
          </mxGeometry>
        </mxCell>
        <mxCell id="BhPjJDwIWVeHdWP09FlF-65" value="" style="endArrow=none;html=1;rounded=0;exitX=1;exitY=0.5;exitDx=0;exitDy=0;" edge="1" parent="1" source="BhPjJDwIWVeHdWP09FlF-11">
          <mxGeometry width="50" height="50" relative="1" as="geometry">
            <mxPoint x="530" y="790" as="sourcePoint" />
            <mxPoint x="760" y="560" as="targetPoint" />
          </mxGeometry>
        </mxCell>
        <mxCell id="BhPjJDwIWVeHdWP09FlF-66" value="" style="endArrow=none;html=1;rounded=0;exitX=1;exitY=0.5;exitDx=0;exitDy=0;" edge="1" parent="1" source="BhPjJDwIWVeHdWP09FlF-32">
          <mxGeometry width="50" height="50" relative="1" as="geometry">
            <mxPoint x="535" y="880" as="sourcePoint" />
            <mxPoint x="760" y="560" as="targetPoint" />
          </mxGeometry>
        </mxCell>
        <mxCell id="BhPjJDwIWVeHdWP09FlF-67" value="" style="endArrow=none;html=1;rounded=0;exitX=1;exitY=0.5;exitDx=0;exitDy=0;" edge="1" parent="1" source="BhPjJDwIWVeHdWP09FlF-31">
          <mxGeometry width="50" height="50" relative="1" as="geometry">
            <mxPoint x="530" y="970" as="sourcePoint" />
            <mxPoint x="760" y="550" as="targetPoint" />
          </mxGeometry>
        </mxCell>
        <mxCell id="BhPjJDwIWVeHdWP09FlF-68" value="" style="endArrow=none;html=1;rounded=0;exitX=1;exitY=0.5;exitDx=0;exitDy=0;" edge="1" parent="1">
          <mxGeometry width="50" height="50" relative="1" as="geometry">
            <mxPoint x="525" y="1140" as="sourcePoint" />
            <mxPoint x="760" y="560" as="targetPoint" />
          </mxGeometry>
        </mxCell>
        <mxCell id="BhPjJDwIWVeHdWP09FlF-69" value="" style="endArrow=none;html=1;rounded=0;exitX=1;exitY=0.5;exitDx=0;exitDy=0;" edge="1" parent="1">
          <mxGeometry width="50" height="50" relative="1" as="geometry">
            <mxPoint x="525" y="1230" as="sourcePoint" />
            <mxPoint x="760" y="560" as="targetPoint" />
          </mxGeometry>
        </mxCell>
      </root>
    </mxGraphModel>
  </diagram>
</mxfile>
